<?xml version="1.0" standalone="no"?>
<!DOCTYPE svg PUBLIC "-//W3C//DTD SVG 20010904//EN"
 "http://www.w3.org/TR/2001/REC-SVG-20010904/DTD/svg10.dtd">
<svg version="1.0" xmlns="http://www.w3.org/2000/svg"
 width="568.000000pt" height="568.000000pt" viewBox="0 0 568.000000 568.000000"
 preserveAspectRatio="xMidYMid meet">
<metadata>
Created by potrace 1.11, written by Peter Selinger 2001-2013
</metadata>
<g transform="translate(0.000000,568.000000) scale(0.100000,-0.100000)"
fill="#000000" stroke="none">
<path d="M2770 5669 c-199 -21 -436 -85 -613 -167 -316 -147 -609 -403 -801
-700 -116 -179 -215 -423 -262 -647 -35 -164 -45 -478 -20 -635 64 -403 232
-756 492 -1030 l71 -75 573 -1173 c610 -1248 596 -1223 675 -1238 40 -7 113
16 138 44 9 9 279 531 600 1160 l585 1143 104 107 c197 204 326 408 422 664
88 237 120 439 113 713 -7 271 -52 477 -159 720 -113 256 -322 526 -548 708
-375 301 -892 455 -1370 406z m422 -928 c385 -101 660 -393 739 -786 6 -33 12
-112 12 -175 0 -176 -30 -297 -115 -460 -141 -272 -401 -461 -707 -514 -174
-30 -348 -13 -513 49 -658 245 -857 1086 -378 1598 148 158 337 262 553 303
101 19 309 12 409 -15z"/>
<path d="M5319 4426 c-94 -25 -165 -82 -212 -170 -22 -40 -22 -48 -25 -535 -3
-575 -6 -557 87 -652 l56 -58 -17 -38 c-16 -35 -17 -101 -18 -808 0 -726 1
-772 19 -810 71 -157 295 -142 341 23 6 25 10 544 10 1550 l0 1512 -98 -1
c-53 0 -118 -6 -143 -13z"/>
<path d="M140 4250 c-19 -19 -20 -33 -20 -545 0 -500 1 -527 20 -578 21 -56
64 -104 117 -131 l32 -16 3 -718 3 -717 25 -43 c32 -57 91 -92 153 -92 81 0
131 31 168 102 18 36 19 69 19 752 l0 716 33 13 c43 19 96 72 118 122 17 37
19 78 19 568 0 528 -2 558 -34 579 -6 4 -37 8 -68 8 -98 0 -98 1 -98 -265 l0
-225 -25 0 -25 0 0 216 c0 269 -2 274 -102 274 -98 0 -98 1 -98 -265 l0 -225
-30 0 -30 0 0 225 c0 267 1 265 -100 265 -47 0 -64 -4 -80 -20z"/>
</g>
</svg>
