<svg xmlns="http://www.w3.org/2000/svg" xmlns:xlink="http://www.w3.org/1999/xlink" width="68.029" height="71.085" viewBox="0 0 68.029 71.085">
  <defs>
    <linearGradient id="linear-gradient" x1="3.932" y1="0.5" x2="-0.134" y2="0.5" gradientUnits="objectBoundingBox">
      <stop offset="0" stop-color="#e65fef"/>
      <stop offset="1" stop-color="#8529ff"/>
    </linearGradient>
  </defs>
  <g id="Groupe_19" data-name="Groupe 19" transform="translate(0 0)">
    <path id="Soustraction_1" data-name="Soustraction 1" d="M34.921,71.085H34.9a1.956,1.956,0,0,1-1.749-1.1L18.921,40.853A23.79,23.79,0,0,1,11.813,26.3a1.951,1.951,0,0,1-.1-1.2c-.028-.505-.04-1.021-.035-1.534A23.787,23.787,0,0,1,35.451,0h.221a23.765,23.765,0,0,1,15.55,41.562L36.671,70.014A1.958,1.958,0,0,1,34.921,71.085Zm.523-59.665a12.354,12.354,0,0,0,0,24.709h.01a12.354,12.354,0,0,0-.006-24.709ZM65.7,55.573a2.33,2.33,0,0,1-2.327-2.327V34.787a2.3,2.3,0,0,1,.479-1.413,4,4,0,0,1-1.911-3.421V19.529a4.022,4.022,0,0,1,4.018-4.018h2.069V33.97h-.148a2.313,2.313,0,0,1,.148.816V53.246A2.33,2.33,0,0,1,65.7,55.573ZM4.476,53.514a2.33,2.33,0,0,1-2.327-2.327V33.8A3.029,3.029,0,0,1,0,30.888V18.422a.853.853,0,0,1,.852-.851h.8a.853.853,0,0,1,.852.851v5.333a3.121,3.121,0,0,1,.536-.047h.193V18.422a.853.853,0,0,1,.852-.851h.8a.853.853,0,0,1,.852.851v5.286h.166a3.014,3.014,0,0,1,.453.033V18.422a.853.853,0,0,1,.852-.851h.8a.852.852,0,0,1,.851.851v7.614a3.017,3.017,0,0,1,.085.715v4.137A3.028,3.028,0,0,1,6.8,33.8v17.39A2.33,2.33,0,0,1,4.476,53.514Z" fill="url(#linear-gradient)"/>
  </g>
</svg>
